<?xml version="1.0" encoding="UTF-8" standalone="no"?>
<svg
   xmlns:dc="http://purl.org/dc/elements/1.1/"
   xmlns:cc="http://creativecommons.org/ns#"
   xmlns:rdf="http://www.w3.org/1999/02/22-rdf-syntax-ns#"
   xmlns:svg="http://www.w3.org/2000/svg"
   xmlns="http://www.w3.org/2000/svg"
   id="svg8"
   version="1.1"
   viewBox="0 0 4.2333332 4.2333335"
   height="16"
   width="16">
  <defs />
  <metadata
     id="metadata5">
    <rdf:RDF>
      <cc:Work
         rdf:about="">
        <dc:format>image/svg+xml</dc:format>
        <dc:type
           rdf:resource="http://purl.org/dc/dcmitype/StillImage" />
        <dc:title></dc:title>
      </cc:Work>
    </rdf:RDF>
  </metadata>
  <g
     transform="translate(0,-292.76665)"
     id="layer1">
    <rect
       y="293.37976"
       x="0.61309177"
       height="3.0071497"
       width="3.0071497"
       id="rect815"
       style="fill:#00c2cb;fill-opacity:1;stroke:#00c2cb;stroke-width:1.22618353;stroke-linecap:round;stroke-miterlimit:4;stroke-dasharray:none;stroke-opacity:1" />
    <g
       id="text1572"
       style="font-style:normal;font-weight:normal;font-size:1.71839321px;line-height:1.25;font-family:sans-serif;letter-spacing:0px;word-spacing:0px;fill:#ffffff;fill-opacity:1;stroke:#ffffff;stroke-width:0.04295984;stroke-opacity:1"
       aria-label="L">
      <path
         id="path1600"
         style="font-style:normal;font-variant:normal;font-weight:normal;font-stretch:normal;font-size:1.71839321px;font-family:'Rock Salt';-inkscape-font-specification:'Rock Salt, Normal';font-variant-ligatures:normal;font-variant-caps:normal;font-variant-numeric:normal;font-feature-settings:normal;text-align:center;writing-mode:lr-tb;text-anchor:middle;fill:#ffffff;fill-opacity:1;stroke:#ffffff;stroke-width:0.04295984;stroke-opacity:1"
         d="m 2.116667,294.69255 q 0,0.0336 -0.011747,0.0554 -0.010069,0.0201 -0.023494,0.047 -0.00336,-0.002 -0.00839,-0.002 -0.010069,0 -0.018459,0.005 -0.00839,0.005 -0.016781,0.008 -0.048665,0.0537 -0.1006871,0.10404 -0.050344,0.0503 -0.1124339,0.0889 -0.016781,0.0101 -0.033562,0.0201 -0.016781,0.008 -0.03524,0.0168 -0.00671,0.003 -0.013425,0.007 -0.00503,0.002 -0.010069,0.005 -0.011747,0.007 -0.025172,0.0218 -0.011747,0.0151 -0.028528,0.0302 -0.015103,0.0168 -0.033562,0.0268 -0.018459,0.0117 -0.040275,0.0101 -0.013425,0.008 -0.023494,0.0218 -0.010069,0.0134 -0.023494,0.0269 -0.072159,0.0252 -0.1325714,0.0654 -0.058734,0.0419 -0.1225026,0.0806 -0.038597,0.0252 -0.077194,0.0403 -0.00839,0.003 -0.020137,0.005 -0.010069,0.002 -0.021815,0.005 -0.055378,0.0134 -0.1124339,0.0218 -0.055378,0.008 -0.11243397,0.008 -0.070481,0 -0.13592759,-0.0168 0,-0.005 -0.003356,-0.007 -0.003356,-0.002 -0.008391,-0.003 -0.003356,-0.002 -0.006712,-0.005 -0.003356,-0.002 0,-0.008 -0.0369186,-0.003 -0.0654466,-0.0185 -0.0268499,-0.0151 -0.0352405,-0.0537 -0.005034,0.003 -0.008391,0.008 -0.003356,0.005 -0.0117468,0.003 -0.0234937,-0.0336 -0.0520217,-0.0621 -0.028528,-0.0285 -0.041953,-0.0688 -0.003356,-0.008 -0.005034,-0.0168 0,-0.007 -0.001678,-0.0151 -0.008391,-0.0235 -0.0302061,-0.0235 0.003356,-0.007 0.003356,-0.0168 0,-0.005 -0.001678,-0.0101 0,-0.005 0,-0.0101 0,-0.008 0.005034,-0.0168 -0.0167812,-0.0386 -0.0234937,-0.0755 -0.006712,-0.0386 -0.006712,-0.0789 0,-0.052 0.005034,-0.10236 0.005034,-0.052 0.005034,-0.10405 0.0100687,-0.0201 0.0151031,-0.047 0.006712,-0.0269 0.0218155,-0.0436 -0.001678,-0.0101 -0.006712,-0.0101 -0.005034,-0.002 -0.005034,-0.0101 0,-0.0302 0.0117468,-0.0654 0.0117468,-0.0352 0.0117468,-0.0722 0.0151031,-0.008 0.0184593,-0.0252 0.005034,-0.0168 0.0184593,-0.0268 v -0.008 q 0,-0.0252 0.005034,-0.0503 0.006712,-0.0252 0.0117468,-0.0487 0.006712,-0.0252 0.0100687,-0.0487 0.005034,-0.0252 0.003356,-0.0487 0.003356,-0.005 0.008391,-0.0185 0.006712,-0.0151 0.0117468,-0.0302 0.006712,-0.0168 0.0100687,-0.0319 0.005034,-0.0151 0.005034,-0.0218 0,-0.0101 -0.003356,-0.0184 -0.003356,-0.008 -0.003356,-0.0185 0,-0.008 0.005034,-0.0235 0.005034,-0.0168 0.008391,-0.0268 0.006712,-0.0285 0.0117468,-0.0587 0.006712,-0.0319 0.0117468,-0.0604 0.0151031,-0.0923 0.0218155,-0.1846 0.006712,-0.094 0.008391,-0.18795 0.0234937,-0.0134 0.0486654,-0.0252 0.0268499,-0.0117 0.0553779,-0.0117 0.008391,0 0.0167812,0.002 0.008391,0.002 0.0167812,0.005 0.008391,0.0336 0.0268499,0.0537 0.0184593,0.0201 0.0335624,0.0487 -0.0100687,0.0268 -0.0134249,0.0554 l -0.005034,0.0571 q -0.001678,0.0285 -0.006712,0.0571 -0.005034,0.0268 -0.0167812,0.052 0.003356,0.008 0.003356,0.0168 v 0.0168 q 0,0.0235 -0.005034,0.0453 -0.003356,0.0218 -0.008391,0.0453 -0.005034,0.0218 -0.008391,0.0436 -0.003356,0.0218 0,0.0436 -0.005034,0.008 -0.0100687,0.0134 -0.005034,0.003 -0.006712,0.0118 l -0.003356,0.0319 q -0.003356,0.0185 -0.006712,0.0369 -0.001678,0.0168 -0.005034,0.0352 -0.0117468,0.0503 -0.0268499,0.10069 -0.0134249,0.0503 -0.0134249,0.10404 v 0.0101 q -0.0151031,0.0235 -0.0234937,0.0587 -0.008391,0.0336 -0.005034,0.0621 -0.0184593,0.0487 -0.0352405,0.0957 -0.0167812,0.047 -0.0167812,0.0973 0,0.008 0,0.0185 0.001678,0.008 0.003356,0.0168 -0.0134249,0.0336 -0.0167812,0.0688 -0.003356,0.0336 -0.003356,0.0671 0,0.0235 0.001678,0.0554 0.003356,0.0302 0.008391,0.0638 0.006712,0.0319 0.0151031,0.0621 0.008391,0.0302 0.0184593,0.0487 0.0385967,0.0621 0.1006871,0.0973 0.0637685,0.0369 0.13424947,0.047 0.0285281,-0.0101 0.0453092,-0.0118 0.018459,-0.002 0.050344,0 0.02685,-0.0134 0.0537,-0.0201 0.028528,-0.007 0.057056,-0.0151 0.00839,-0.003 0.016781,-0.007 0.010069,-0.003 0.016781,-0.007 0.00839,-0.003 0.018459,-0.0151 0.010069,-0.0117 0.018459,-0.0201 0.035241,-0.0101 0.067125,-0.0285 0.031884,-0.0168 0.06209,-0.0352 l 0.06209,-0.0369 q 0.031884,-0.0185 0.067125,-0.0319 0.013425,-0.005 0.015103,-0.0134 0.00336,-0.0101 0.010069,-0.0235 0.00336,0.003 0.010069,0.003 0.020137,0 0.028528,-0.0118 0.00839,-0.0134 0.020137,-0.0268 0.021816,-0.003 0.041953,-0.0118 0.020137,-0.0101 0.030206,-0.0302 0.041953,-0.008 0.073837,-0.0302 0.031884,-0.0218 0.06209,-0.047 0.030206,-0.0268 0.060412,-0.0503 0.030206,-0.0252 0.068803,-0.0403 0.00503,-0.008 0.00671,-0.0151 0.00168,-0.007 0.00503,-0.0151 0.028528,-0.003 0.045309,-0.0151 0.016781,-0.0134 0.038597,-0.0269 0.046987,0.005 0.067125,0.0419 z" />
    </g>
    <g
       id="text1576"
       style="font-style:normal;font-weight:normal;font-size:1.62397599px;line-height:1.25;font-family:sans-serif;letter-spacing:0px;word-spacing:0px;fill:#ffffff;fill-opacity:1;stroke:#ffffff;stroke-width:0.0405994;stroke-opacity:1"
       aria-label="M">
      <path
         id="path1597"
         style="font-style:normal;font-variant:normal;font-weight:normal;font-stretch:normal;font-size:1.62397599px;font-family:'Rock Salt';-inkscape-font-specification:'Rock Salt, Normal';font-variant-ligatures:normal;font-variant-caps:normal;font-variant-numeric:normal;font-feature-settings:normal;text-align:start;writing-mode:lr-tb;text-anchor:start;fill:#ffffff;fill-opacity:1;stroke:#ffffff;stroke-width:0.0405994;stroke-opacity:1"
         d="m 3.7041665,296.40257 q 0,0.0143 -0.011101,0.0254 -0.00952,0.0111 -0.023789,0.0174 -0.014273,0.008 -0.030132,0.0143 -0.014273,0.006 -0.025375,0.0111 -0.017445,-0.01 -0.036476,-0.0127 -0.017445,-0.003 -0.031718,-0.0159 h -0.011101 q -0.025375,0 -0.039648,0.006 -0.022203,-0.008 -0.036476,-0.0238 -0.014273,-0.0143 -0.02696,-0.0317 -0.012687,-0.0159 -0.025375,-0.0317 -0.012687,-0.0159 -0.031718,-0.027 -0.028547,-0.0793 -0.050749,-0.16018 -0.022203,-0.0809 -0.033304,-0.16493 0.00317,-0.008 0.00476,-0.0174 0.00159,-0.01 0.00159,-0.0174 0,-0.006 -0.00317,-0.0127 -0.00159,-0.008 -0.00952,-0.01 0.00793,-0.0127 0.00952,-0.0285 0.00317,-0.0174 0.00317,-0.0317 0,-0.0317 -0.00634,-0.0523 0.00952,-0.008 0.00793,-0.0254 -0.00159,-0.019 0.00793,-0.027 -0.00793,-0.027 -0.00793,-0.0523 0,-0.0349 0.00793,-0.0682 0.00952,-0.0333 0.00952,-0.0682 0,-0.008 -0.00159,-0.0159 0,-0.008 -0.00159,-0.0159 0.00793,-0.0254 0.014273,-0.0507 0.00793,-0.027 0.00793,-0.0539 0,-0.019 -0.00634,-0.0317 0.020617,-0.0729 0.028546,-0.14432 0.00952,-0.0729 0.017445,-0.14749 -0.00159,-0.003 -0.00317,-0.005 -0.00159,-0.002 -0.00159,-0.005 0,-0.008 0.00793,-0.0127 0.00952,-0.005 0.00793,-0.0174 -0.019031,0.019 -0.031718,0.0444 -0.011101,0.0254 -0.022203,0.0508 -0.00952,0.0254 -0.022203,0.0507 -0.011101,0.0238 -0.030132,0.0428 -0.00159,0.0174 -0.011101,0.0333 -0.00793,0.0159 -0.00793,0.0349 -0.00159,0 -0.00317,0 -0.00159,-0.002 -0.00476,-0.002 -0.00634,0 -0.00952,0.008 -0.00159,0.008 -0.00952,0.005 -0.036476,0.0714 -0.080882,0.13956 -0.04282,0.0682 -0.1125999,0.10943 -0.012687,-0.005 -0.023789,-0.005 -0.020617,0 -0.041234,0.0127 -0.019031,0.0111 -0.025375,0.0111 -0.015859,0 -0.039648,-0.0159 -0.022203,-0.0174 -0.045992,-0.019 -0.025375,-0.0174 -0.04282,-0.0349 -0.015859,-0.019 -0.049163,-0.0222 -0.022203,-0.0333 -0.044406,-0.0634 -0.020617,-0.0301 -0.041234,-0.0587 -0.019031,-0.0301 -0.03489,-0.0634 -0.014273,-0.0333 -0.022203,-0.0745 0.00159,-0.003 0.00159,-0.006 0,-0.01 -0.00952,-0.008 -0.00793,0.002 -0.00793,-0.01 v -0.0111 q 0,-0.0127 -0.00476,-0.0222 -0.00317,-0.0111 -0.00159,-0.0238 -0.011101,-0.0174 -0.017445,-0.0365 -0.00634,-0.019 -0.022203,-0.0333 v -0.0143 q 0,-0.01 -0.00159,-0.0174 0,-0.01 -0.00476,-0.0159 -0.00317,-0.008 -0.011101,-0.01 -0.00159,-0.0571 -0.023789,-0.11577 -0.020617,-0.0603 -0.038062,-0.11577 -0.012687,0.0412 -0.019031,0.084 -0.00634,0.0412 -0.00634,0.0841 v 0.027 q 0,0.0127 0.00317,0.0254 -0.00476,0.008 -0.014273,0.0111 -0.00793,0.003 -0.00952,0.0127 -0.00159,0.008 -0.00159,0.0159 0.00159,0.008 0,0.0159 -0.00317,0.0381 -0.00952,0.0729 -0.00952,0.0523 -0.022203,0.10626 -0.012687,0.0523 -0.012687,0.10784 0,0.003 0,0.01 0.00159,0.005 0.00159,0.008 -0.025375,0.0222 -0.02696,0.0555 -0.00159,0.0333 -0.00793,0.0634 -0.00793,0.0444 -0.019031,0.0888 -0.011101,0.0428 -0.019031,0.0888 -0.00476,0.0254 -0.00793,0.0507 -0.00317,0.0238 -0.00634,0.0492 -0.00159,0.0143 -0.011101,0.0238 -0.00793,0.01 -0.011101,0.0222 -0.00159,0.0111 -0.00159,0.0254 0.00159,0.0127 0.00159,0.0238 0,0.019 -0.00317,0.0365 -0.00317,0.0159 -0.019031,0.0285 0.00317,0.0412 0.014273,0.0698 0.011101,0.0301 0.025375,0.0666 h 0.039648 v 0.006 q 0,0.0159 0.00476,0.0285 0.00634,0.0127 0.023789,0.0111 -0.00159,0.006 -0.00159,0.0159 0,0.0143 0.00476,0.0254 0.00634,0.0127 0.00952,0.027 -0.031718,0.0523 -0.068194,0.0777 -0.036476,0.0254 -0.099913,0.0254 h -0.025375 q -0.00793,-0.0254 -0.019031,-0.0492 -0.011101,-0.0238 -0.022203,-0.0476 -0.00952,-0.0238 -0.017445,-0.0492 -0.00634,-0.0238 -0.00634,-0.0507 0,-0.006 0.00159,-0.0127 0.00159,-0.005 0.00159,-0.0111 0,-0.008 -0.00634,-0.01 -0.00634,-0.002 -0.00634,-0.0159 0,-0.0111 -0.00159,-0.0206 0,-0.01 0,-0.0206 0,-0.0523 0.00793,-0.10309 0.00793,-0.0523 0.011101,-0.10467 0.00793,-0.008 0.00793,-0.0206 0,-0.0127 0.00793,-0.0206 v -0.0111 q 0,-0.0285 0.00634,-0.0571 0.00634,-0.0285 0.014273,-0.0555 0.00793,-0.027 0.014273,-0.0555 0.00634,-0.0285 0.00634,-0.0571 v -0.0254 q 0,-0.0111 0.00952,-0.01 0.011101,0 0.012687,-0.0127 0.00317,-0.0222 0.00317,-0.0428 0.00159,-0.0222 0.00476,-0.0444 0.00793,-0.0428 0.017445,-0.0856 0.00952,-0.0444 0.00952,-0.0888 v -0.005 q 0,-0.005 0.00793,-0.019 0.00793,-0.0159 0.00793,-0.0301 0,-0.0111 -0.00476,-0.0206 0.00159,0.002 0.00634,0.002 0.00634,0 0.00793,-0.003 0.00317,-0.005 0.00793,-0.008 -0.00476,-0.006 -0.00476,-0.0127 0,-0.008 0.00159,-0.0143 0.00317,-0.008 0.00317,-0.0159 0,-0.0111 -0.011101,-0.0159 0.019031,-0.0349 0.026961,-0.0745 0.00952,-0.0396 0.012687,-0.0809 0.00476,-0.0412 0.00793,-0.0825 0.00317,-0.0428 0.014273,-0.0809 -0.00317,-0.01 -0.00476,-0.0206 0,-0.0111 0,-0.0206 0,-0.006 -0.00159,-0.0127 -0.00159,-0.008 0.00159,-0.0143 0,-0.003 0.00159,-0.008 l 0.00317,-0.01 q 0.00317,-0.0111 0.00317,-0.0222 0.00159,-0.0127 0.00317,-0.0254 0.00317,-0.0365 0.00159,-0.0745 0,-0.0381 0.00317,-0.0761 -0.00476,-0.006 -0.00952,-0.01 -0.00476,-0.005 -0.00634,-0.0127 0.012687,-0.0222 0.026961,-0.0412 0.015859,-0.0206 0.041234,-0.0317 0.00476,0.0175 0.025375,0.0175 0.00952,0 0.023789,-0.005 0.014273,-0.005 0.019031,-0.0127 0.026961,0.01 0.053921,0.01 0.028547,-0.002 0.052335,0.0127 0.00476,0.0238 0.012687,0.0492 0.00793,0.0254 0.022203,0.046 0.00317,0.0206 0.00634,0.0507 0.00317,0.0285 0.00634,0.0603 0.00317,0.0301 0.00952,0.0587 0.00634,0.027 0.017445,0.0428 0.00159,0.0285 0.00952,0.0571 0.00793,0.0285 0.017445,0.0555 0.00952,0.0254 0.015859,0.0476 0.00793,0.0222 0.00793,0.0365 0,0.0127 -0.00476,0.0174 -0.00317,0.003 -0.00634,0.0127 0.00634,0.0174 0.017445,0.0301 0.011101,0.0111 0.023789,0.027 0.023789,0.0904 0.061851,0.17604 0.038062,0.0856 0.091983,0.16493 0.014273,0.002 0.022203,0.008 0.00952,0.006 0.028547,0.003 v 0.0111 q 0,0.0159 0.00634,0.0222 0.014273,0.01 0.033304,0.01 0.020617,0 0.031718,-0.0111 0.012687,-0.0127 0.023789,-0.0285 0.011101,-0.0159 0.022203,-0.0301 0.011101,-0.0143 0.030132,-0.019 v -0.003 q 0,-0.0127 0.00476,-0.0206 0.00634,-0.01 0.00634,-0.0206 0.017445,-0.0127 0.02696,-0.0317 0.00952,-0.019 0.017445,-0.0381 0.00793,-0.0206 0.017445,-0.0381 0.011101,-0.0174 0.028547,-0.0285 0.022203,-0.0682 0.053921,-0.12688 0.031718,-0.0587 0.066608,-0.11894 0,-0.005 -0.00159,-0.01 -0.00159,-0.006 -0.00159,-0.0111 0,-0.002 0.00317,-0.0143 0.00793,-0.0159 0.014273,-0.0301 0.00634,-0.0143 0.011101,-0.0317 0.015859,-0.0492 0.028546,-0.0967 0.014273,-0.0476 0.041234,-0.0904 v -0.0397 q 0.028546,-0.0571 0.039648,-0.12053 0.012687,-0.0634 0.030132,-0.1237 0.00317,-0.0174 0.011101,-0.0349 0.00952,-0.019 0.022203,-0.027 -0.00476,-0.01 -0.00476,-0.019 0,-0.0127 0.00317,-0.0222 0.00476,-0.0111 0.00793,-0.0222 -0.00476,-0.0111 -0.00476,-0.0285 0,-0.0222 0.012687,-0.0412 0.012687,-0.0206 0.038062,-0.027 0.015859,0.005 0.02696,0.0159 0.011101,0.0111 0.020617,0.0238 0.011101,0.0111 0.022203,0.019 0.012687,0.006 0.031718,0.003 0.012687,0.0238 0.017445,0.0507 0.00476,0.0254 0.00476,0.0523 0,0.0365 -0.00634,0.0761 -0.00634,0.0381 -0.00476,0.0777 -0.012687,0.0254 -0.019031,0.0555 -0.00476,0.0285 -0.00952,0.0587 -0.00476,0.0301 -0.011101,0.0587 -0.00634,0.0285 -0.022203,0.0539 -0.00476,0.0714 -0.011101,0.13956 -0.00476,0.0682 -0.015859,0.13639 l -0.014273,0.0904 q -0.00317,0.0111 -0.00634,0.0254 -0.00317,0.0127 -0.00317,0.0222 0,0.01 0.00159,0.0206 0.00159,0.01 0.00952,0.0143 -0.011101,0.0159 -0.015859,0.0381 -0.00476,0.0222 -0.00952,0.0476 l -0.00793,0.0492 q -0.00317,0.0238 -0.012687,0.0428 v 0.0174 q 0,0.0634 -0.022203,0.13005 v 0.008 q 0,0.008 -0.00159,0.0143 0,0.005 0,0.0127 0,0.0111 0.00634,0.0174 -0.012687,0.0412 -0.023789,0.0856 -0.011101,0.0428 -0.015859,0.0888 -0.00476,0.0618 -0.00159,0.12687 0.00317,0.0634 -0.015859,0.12371 0.00952,0.0285 0.012687,0.0618 l 0.00634,0.0666 q 0.00317,0.0333 0.00952,0.0634 0.00793,0.0317 0.028546,0.0523 0.00159,0.003 0.00159,0.01 0,0.0127 -0.00634,0.019 0.00317,0.0159 0.011101,0.027 0.00793,0.0111 0.015859,0.0206 0.00793,0.0111 0.012687,0.0238 0.00634,0.0127 0.00634,0.0317 0.012687,0.0174 0.039648,0.027 0.026961,0.01 0.053921,0.019 0.028547,0.01 0.049163,0.0238 0.020617,0.0159 0.020617,0.0444 z" />
    </g>
  </g>
</svg>
