<?xml version="1.0" encoding="UTF-8" standalone="no"?>
<svg
   xmlns:dc="http://purl.org/dc/elements/1.1/"
   xmlns:cc="http://creativecommons.org/ns#"
   xmlns:rdf="http://www.w3.org/1999/02/22-rdf-syntax-ns#"
   xmlns:svg="http://www.w3.org/2000/svg"
   xmlns="http://www.w3.org/2000/svg"
   height="20"
   width="20"
   viewBox="0 0 20 20"
   aria-hidden="true"
   focusable="false"
   version="1.1"
   id="svg881">
  <metadata
     id="metadata887">
    <rdf:RDF>
      <cc:Work
         rdf:about="">
        <dc:format>image/svg+xml</dc:format>
        <dc:type
           rdf:resource="http://purl.org/dc/dcmitype/StillImage" />
        <dc:title></dc:title>
      </cc:Work>
    </rdf:RDF>
  </metadata>
  <defs
     id="defs885" />
  <path
     d="M 16,0 H 4 C 1.8,0 0,1.8 0,4 v 12 c 0,2.2 1.8,4 4,4 h 12 c 2.2,0 4,-1.8 4,-4 V 4 C 20,1.8 18.2,0 16,0 Z m -1.3,16 c 0,0 -2.3,-0.1 -3.3,-0.1 H 7 L 4.4,16 V 15.3 L 5.3,15.1 C 5.9,15 6,14.9 6,14.4 6,14.4 6.1,12.8 6.1,10.1 6.1,7.4 6,5.7 6,5.7 6,5.2 5.8,5.1 5.2,5 L 4.4,4.8 V 4.1 L 7,4.2 h 4.9 c 1,0 2.6,-0.2 2.6,-0.2 0,0 -0.1,1 -0.1,3.4 H 13.7 L 13.5,6.6 C 13.2,5.5 12.8,5 12.1,5 H 8.3 C 8,5 8,5 8,5.2 v 4.4 c 0,0 1.6,0 2.4,-0.1 0.4,0.1 0.9,-0.3 0.9,-0.7 V 8.7 l 0.2,-1 h 0.7 L 12.1,9.8 12.2,12 H 11.5 L 11.3,11.2 C 11.2,10.7 10.8,10.4 10.4,10.4 9.8,10.3 8,10.3 8,10.3 V 14 c 0,0.7 0.4,1 1.2,1 h 2.6 c 0.9,0.1 1.8,-0.4 2.1,-1.2 l 0.7,-1.4 h 0.6 c -0.1,0.4 -0.4,3 -0.5,3.6 z"
     id="path879"
     style="fill:#f56400;fill-opacity:1" />
</svg>
